<?xml version="1.0" encoding="utf-8"?>
<!-- Generator: Adobe Illustrator 26.3.1, SVG Export Plug-In . SVG Version: 6.00 Build 0)  -->
<svg version="1.1" id="Layer_1" xmlns="http://www.w3.org/2000/svg" xmlns:xlink="http://www.w3.org/1999/xlink" x="0px" y="0px"
	 viewBox="0 0 947.1 651.8" style="enable-background:new 0 0 947.1 651.8;" xml:space="preserve">
<style type="text/css">
	.st0{fill:#1B2244;}
	.st1{fill:#FFFFFF;}
	.st2{fill:#172246;}
</style>
<g>
	<g>
		<path class="st0" d="M325.5,366.2c-32.2-6.5-80.4-9.9-126.7,10.6c-48,21.3-88.4,18.6-113.8,12.7c-16.1-3.8-28.3-9.3-35.8-13.3
			l-22.7,35.5c6.2,4.9,16.9,11.8,33,16.7c46.6,14.2,101.4,1,139.2-12.6c30.9-11.1,59.8-16.1,85.8-14.9c21.1,1,40.4,6,57.4,15
			c14.2,7.5,24.4,16.4,31.1,23.7l25-47.2C385.2,384.7,358.4,372.8,325.5,366.2z"/>
		<path class="st0" d="M455.8,280.6c-9.5,1.5-18.6,2.2-27.3,2.2c-18.6,0-35.4-3.4-49.4-10.1c-26.3-12.5-49.3-19.3-72.3-21.4
			c-27-2.4-54.5,1.7-84.4,12.6c-53.2,19.4-92.5,16.7-110.3,13.7L86,318.5c6.5,1.8,15.3,3.8,26.2,4.9c22.1,2.4,57.2,1.7,99.4-14.5
			c2.5-1.2,19.2-9.2,45.6-12.8c25.7-3.5,66-3.3,111.8,17.4c1.3,0.5,14.9,5.9,31.6,10.4c11.6,3.1,21.9,5.1,30.7,5.8l26.1-49.4
			C456.8,280.4,456.3,280.5,455.8,280.6z"/>
		<path class="st1" d="M397.6,334.5c-18-4.9-32.2-10.6-32.8-10.9l-0.2-0.1c-83.1-37.7-147.5-5.1-148.2-4.8l-0.6,0.3
			c-65.5,25.3-115.2,15.6-136,9.1l-24.7,38.7c7,3.7,18.3,8.6,32.9,12c23.7,5.5,61.3,7.8,106.3-12.1c48.9-21.7,99.5-18.1,133.3-11.3
			c33.9,6.8,61.3,18.8,75.5,27.3l22.5-42.5C417.3,339.2,407.9,337.3,397.6,334.5z"/>
	</g>
	<g>
		<path class="st2" d="M519.9,374.9L424,520.8h196.4l94.2-145.9H519.9z M586.3,469.9h-63.5l25.4-42.8h65.7L586.3,469.9z"/>
		<g>
			<polygon class="st2" points="597.9,147.1 614.3,121.9 560.4,121.9 543.8,147.1 			"/>
			<polygon class="st2" points="619.1,114.5 630.2,97.5 576.6,97.5 565.3,114.5 			"/>
			<polygon class="st2" points="546.5,226.1 570,190 515.5,190 491.6,226.1 			"/>
			<polygon class="st2" points="576.1,180.7 593.1,154.5 538.9,154.5 521.6,180.7 			"/>
			<polygon class="st2" points="647.6,180.7 695.1,180.7 712.1,154.5 664.6,154.5 			"/>
			<polygon class="st2" points="617.9,226.1 665.7,226.1 689.1,190 641.5,190 			"/>
			<polygon class="st2" points="647.5,70.8 655.5,58.4 602.4,58.4 594.2,70.8 			"/>
			<polygon class="st2" points="635,90.1 644,76.2 590.6,76.2 581.5,90.1 			"/>
			<polygon class="st2" points="611,45.3 605.9,53 659.1,53 664.1,45.3 			"/>
			<polygon class="st2" points="730.8,53 777.8,53 782.8,45.3 735.9,45.3 			"/>
			<polygon class="st2" points="667.6,39.9 671.1,34.4 618.2,34.4 614.6,39.9 			"/>
			<polygon class="st2" points="786.3,39.9 789.8,34.4 742.9,34.4 739.4,39.9 			"/>
			<polygon class="st2" points="638.8,267.7 659.7,235.4 611.9,235.4 560.6,314.1 824,314.1 647.1,579.4 316.9,579.4 319.4,575.6 
				540.5,235.4 485.5,235.4 227.7,625.9 678.7,625.9 909,267.7 			"/>
			<polygon class="st2" points="719.2,70.8 766.3,70.8 774.3,58.4 727.3,58.4 			"/>
			<polygon class="st2" points="669.5,147.1 716.9,147.1 733.2,121.9 685.9,121.9 			"/>
			<polygon class="st2" points="690.7,114.5 738,114.5 749,97.5 701.8,97.5 			"/>
			<polygon class="st2" points="706.7,90.1 753.8,90.1 762.8,76.2 715.7,76.2 			"/>
		</g>
		<g>
			<polygon class="st1" points="607.4,147.1 659.9,147.1 676.3,121.9 623.8,121.9 			"/>
			<polygon class="st1" points="585.6,180.7 638,180.7 655.1,154.5 602.6,154.5 			"/>
			<polygon class="st1" points="729.8,39.9 733.4,34.5 680.7,34.5 677.1,39.9 			"/>
			<polygon class="st1" points="556.1,226.1 608.4,226.1 631.9,190 579.6,190 			"/>
			<polygon class="st1" points="628.6,114.5 681.2,114.5 692.3,97.5 639.7,97.5 			"/>
			<path class="st1" d="M602.3,235.4H550l-218.4,336h311.2l166.3-249.4H545.8L602.3,235.4z M729.6,366.5l-105,162.6H408.9
				l106.9-162.6H729.6z"/>
			<polygon class="st1" points="644.5,90.1 697.1,90.1 706.1,76.2 653.5,76.2 			"/>
			<polygon class="st1" points="668.6,53 721.3,53 726.3,45.3 673.6,45.3 			"/>
			<polygon class="st1" points="657,70.8 709.7,70.8 717.7,58.4 665.1,58.4 			"/>
		</g>
	</g>
</g>
</svg>
