<?xml version="1.0" encoding="utf-8"?>
<!-- Generator: Adobe Illustrator 26.3.1, SVG Export Plug-In . SVG Version: 6.00 Build 0)  -->
<svg version="1.1" id="Layer_1" xmlns="http://www.w3.org/2000/svg" xmlns:xlink="http://www.w3.org/1999/xlink" x="0px" y="0px"
	 viewBox="0 0 2378.3 651.8" style="enable-background:new 0 0 2378.3 651.8;" xml:space="preserve">
<style type="text/css">
	.st0{fill:#FFFFFF;}
	.st1{fill:#1B2244;}
	.st2{fill:#172246;}
</style>
<g>
	<g>
		<path class="st1" d="M325.5,366.2c-32.2-6.5-80.4-9.9-126.7,10.6c-48,21.3-88.4,18.6-113.8,12.7c-16.1-3.8-28.3-9.3-35.8-13.3
			l-22.7,35.5c6.2,4.9,16.9,11.8,33,16.7c46.6,14.2,101.4,1,139.2-12.6c30.9-11.1,59.8-16.1,85.8-14.9c21.1,1,40.4,6,57.4,15
			c14.2,7.5,24.4,16.4,31.1,23.7l25-47.2C385.2,384.7,358.4,372.8,325.5,366.2z"/>
		<path class="st1" d="M455.8,280.6c-9.5,1.5-18.6,2.2-27.3,2.2c-18.6,0-35.4-3.4-49.4-10.1c-26.3-12.5-49.3-19.3-72.3-21.4
			c-27-2.4-54.5,1.7-84.4,12.6c-53.2,19.4-92.5,16.7-110.3,13.7L86,318.5c6.5,1.8,15.3,3.8,26.2,4.9c22.1,2.4,57.2,1.7,99.4-14.5
			c2.5-1.2,19.2-9.2,45.6-12.8c25.7-3.5,66-3.3,111.8,17.4c1.3,0.5,14.9,5.9,31.6,10.4c11.6,3.1,21.9,5.1,30.7,5.8l26.1-49.4
			C456.8,280.4,456.3,280.5,455.8,280.6z"/>
		<path class="st0" d="M397.6,334.5c-18-4.9-32.2-10.6-32.8-10.9l-0.2-0.1c-83.1-37.7-147.5-5.1-148.2-4.8l-0.6,0.3
			c-65.5,25.3-115.2,15.6-136,9.1l-24.7,38.7c7,3.7,18.3,8.6,32.9,12c23.7,5.5,61.3,7.8,106.3-12.1c48.9-21.7,99.5-18.1,133.3-11.3
			c33.9,6.8,61.3,18.8,75.5,27.3l22.5-42.5C417.3,339.2,407.9,337.3,397.6,334.5z"/>
	</g>
	<g>
		<path class="st2" d="M519.9,374.9L424,520.8h196.4l94.2-145.9H519.9z M586.3,469.9h-63.5l25.4-42.8h65.7L586.3,469.9z"/>
		<g>
			<polygon class="st2" points="597.9,147.1 614.3,121.9 560.4,121.9 543.8,147.1 			"/>
			<polygon class="st2" points="619.1,114.5 630.2,97.5 576.6,97.5 565.3,114.5 			"/>
			<polygon class="st2" points="546.5,226.1 570,190 515.5,190 491.6,226.1 			"/>
			<polygon class="st2" points="576.1,180.7 593.1,154.5 538.9,154.5 521.6,180.7 			"/>
			<polygon class="st2" points="647.6,180.7 695.1,180.7 712.1,154.5 664.6,154.5 			"/>
			<polygon class="st2" points="617.9,226.1 665.7,226.1 689.1,190 641.5,190 			"/>
			<polygon class="st2" points="647.5,70.8 655.5,58.4 602.4,58.4 594.2,70.8 			"/>
			<polygon class="st2" points="635,90.1 644,76.2 590.6,76.2 581.5,90.1 			"/>
			<polygon class="st2" points="611,45.3 605.9,53 659.1,53 664.1,45.3 			"/>
			<polygon class="st2" points="730.8,53 777.8,53 782.8,45.3 735.9,45.3 			"/>
			<polygon class="st2" points="667.6,39.9 671.1,34.4 618.2,34.4 614.6,39.9 			"/>
			<polygon class="st2" points="786.3,39.9 789.8,34.4 742.9,34.4 739.4,39.9 			"/>
			<polygon class="st2" points="638.8,267.7 659.7,235.4 611.9,235.4 560.6,314.1 824,314.1 647.1,579.4 316.9,579.4 319.4,575.6 
				540.5,235.4 485.5,235.4 227.7,625.9 678.7,625.9 909,267.7 			"/>
			<polygon class="st2" points="719.2,70.8 766.3,70.8 774.3,58.4 727.3,58.4 			"/>
			<polygon class="st2" points="669.5,147.1 716.9,147.1 733.2,121.9 685.9,121.9 			"/>
			<polygon class="st2" points="690.7,114.5 738,114.5 749,97.5 701.8,97.5 			"/>
			<polygon class="st2" points="706.7,90.1 753.8,90.1 762.8,76.2 715.7,76.2 			"/>
		</g>
		<g>
			<polygon class="st0" points="607.4,147.1 659.9,147.1 676.3,121.9 623.8,121.9 			"/>
			<polygon class="st0" points="585.6,180.7 638,180.7 655.1,154.5 602.6,154.5 			"/>
			<polygon class="st0" points="729.8,39.9 733.4,34.5 680.7,34.5 677.1,39.9 			"/>
			<polygon class="st0" points="556.1,226.1 608.4,226.1 631.9,190 579.6,190 			"/>
			<polygon class="st0" points="628.6,114.5 681.2,114.5 692.3,97.5 639.7,97.5 			"/>
			<path class="st0" d="M602.3,235.4H550l-218.4,336h311.2l166.3-249.4H545.8L602.3,235.4z M729.6,366.5l-105,162.6H408.9
				l106.9-162.6H729.6z"/>
			<polygon class="st0" points="644.5,90.1 697.1,90.1 706.1,76.2 653.5,76.2 			"/>
			<polygon class="st0" points="668.6,53 721.3,53 726.3,45.3 673.6,45.3 			"/>
			<polygon class="st0" points="657,70.8 709.7,70.8 717.7,58.4 665.1,58.4 			"/>
		</g>
	</g>
</g>
<g>
	<path class="st2" d="M937.2,401.9c0,5.8-2.5,11.5-7.4,17.1s-9.7,8.5-14.5,8.5c-2.8,0-5.8-0.9-9.2-2.7c-3.3-1.8-8.4-5.3-15.3-10.5
		l2.1-2.9c3.6,2.4,6.6,4,8.9,4.8c1.9,0.7,4.1,1,6.5,1c3.3,0,6.5-0.9,9.7-2.7c3.8-2.2,7.7-5.6,11.7-10.4c-1.4,0.2-2.6,0.3-3.5,0.3
		c-3.3,0-6-1.1-7.9-3.3c-2-2.2-3-5.1-3-8.9c0-5,1.2-9.9,3.5-14.6c2.5-5.1,5.4-7.6,8.6-7.6c2.7,0,5,1.8,6.9,5.5
		c1.9,3.7,2.8,8.1,2.8,13.3V401.9z M931.2,391.7c-0.9-5.4-2.9-8.1-5.7-8.1c-1,0-1.9,0.4-2.5,1.2c-0.6,0.8-0.9,1.7-0.9,2.7
		c0,1.2,0.7,2.2,2,3c1.3,0.8,3.1,1.2,5.3,1.2H931.2z"/>
	<path class="st2" d="M993.1,405.4h-33.8c-7.3,0-12.5-1.2-15.7-3.7c-2.9-2.2-4.3-5.7-4.3-10.3c0-3.1,0.5-6.2,1.4-9.2
		c1-3,2.6-6.6,4.9-10.8l3,2.1c-1.3,2.6-2.2,4.5-2.5,5.8c-0.4,1.3-0.6,2.6-0.6,4c0,3.2,1.2,5.4,3.6,6.6c2.4,1.2,6.9,1.8,13.7,1.8H987
		l-6.1-34.2l-3.2-2.1c0-2,0.3-4,0.9-6c0.8-2.6,2.1-5.6,3.9-9.1l2.3,1.2c0,0.2-0.1,0.7-0.2,1.6c0,1.1,0.7,2.2,2.1,3.2
		c1.2,0.9,3.2,2,6,3.1c-0.3,2.2-0.7,4.3-1.3,6.3c-0.6,2.1-1.3,3.9-2,5.5l-1.8-0.7l5.5,31.2V405.4z M975.8,367.8c0,4.5-1.3,8-4,10.5
		c-2.6,2.5-6.3,3.8-11.1,3.8c-1.3,0-2.4,0-3.2-0.1c-0.8-0.1-2.1-0.3-3.9-0.6l0.6-3.2h0.9c3.3,0,6.4-0.5,9.2-1.4
		c2.8-0.9,4.2-2,4.2-3.3c0-0.5-0.2-0.8-0.5-1c-0.3-0.2-1-0.3-2-0.4c-3.2,0-4.8-1.4-4.8-4.2c0-2,0.4-4.3,1.2-6.7
		c0.8-2.5,1.9-5,3.4-7.5c0.9-1.5,1.9-2.7,2.9-3.4c1-0.7,2.4-1.4,4.4-2c-0.1,1.3-0.1,2.7-0.2,4.3c0,1.5-0.1,2.9-0.1,4.1
		c-1.8,0.5-3.3,1.2-4.5,2.1c-1.1,0.8-1.6,1.5-1.6,2.1c0,0.7,1.1,1.2,3.4,1.5c2.1,0,3.5,0.4,4.4,1.3
		C975.4,364.4,975.8,365.8,975.8,367.8z"/>
	<path class="st2" d="M1013.6,405.4h-24v-13.7h24V405.4z"/>
	<path class="st2" d="M1034,405.4h-24v-13.7h24V405.4z"/>
	<path class="st2" d="M1054.5,405.4h-24v-13.7h24V405.4z"/>
	<path class="st2" d="M1073.2,390.7c0,3-0.4,5.7-1.1,8.2s-2.1,5.8-4.1,10l-3-1.2c0.8-4.3,1.2-7.8,1.2-10.5c0-2.1-0.2-5.1-0.5-9
		s-0.8-7.9-1.3-11.8c-0.5-3.9-1.3-8.5-2.5-13.9c-0.4-1.9-0.6-3.2-0.6-3.9c0-1,0.5-2.8,1.6-5.3c1-2.5,2.5-5.5,4.4-9.1l3,17.9
		c1.1,6.8,1.9,12.7,2.3,17.6C1073,383.5,1073.2,387.2,1073.2,390.7z"/>
	<path class="st2" d="M1123.5,404.1c0,5.2-2.7,9.8-8.1,13.8c-5.4,4-11.5,6-18.4,6c-5.7,0-10.2-1.5-13.5-4.4c-3.2-2.9-4.9-7-4.9-12.2
		c0-4.9,0.6-9.1,1.8-12.8c1.4-4.1,4.1-9.1,8.1-15.1l3.1,2.1c-2.6,3.9-4.5,7.3-5.6,10.2c-1.1,2.9-1.7,5.8-1.7,8.6
		c0,3.1,1.1,5.4,3.4,7.1c2.3,1.7,5.5,2.5,9.6,2.5c5.9,0,10.7-1.1,14.4-3.4c3.7-2.3,5.5-5.3,5.5-9c0-0.6,0-1.1,0-1.5s0-0.7,0-0.9
		c0-1.3-0.1-2.8-0.3-4.3c-0.2-1.6-0.8-4.8-1.7-9.8c-1.4-8-2.9-16-4.3-24l-2.5-1.8c0-3.3,1.5-8.3,4.6-15.1l2.3,1.1
		c-0.1,0.5-0.2,1-0.2,1.6c0,1.3,0.7,2.4,2.1,3.3c2,1.1,4,2.2,5.8,3.3c-0.4,2.9-0.7,5-1.1,6.2c-0.4,1.2-1.1,3.1-2.3,5.6l-1.5-0.6
		c0,0.5,0.5,3.4,1.4,8.6s1.8,9.7,2.4,13.5c0.9,5.4,1.4,8.8,1.4,9.9V404.1z"/>
	<path class="st2" d="M1144,405.4h-24v-13.7h24V405.4z"/>
	<path class="st2" d="M1164.4,405.4h-24v-13.7h24V405.4z"/>
	<path class="st2" d="M1184.9,405.4h-24v-13.7h24V405.4z"/>
	<path class="st2" d="M1205.4,405.4h-24v-13.7h24V405.4z"/>
	<path class="st2" d="M1225.9,405.4h-24v-13.7h24V405.4z"/>
	<path class="st2" d="M1254.7,346.5l-5.5,10.3l-7.2-4l-4,8l-9.4-5.1l5.2-9.8l7.5,3.7l4.2-8.2L1254.7,346.5z M1257.2,386.5
		c0,2-0.2,4.1-0.5,6.1c-0.3,2.1-0.7,3.8-1.2,5.1c-0.9,2.6-3.3,4.8-7,6.8c-3.4,1.8-6.7,2.7-9.7,2.7c-2.6,0-4.7-0.9-6.3-2.7
		s-2.3-4.2-2.3-7.3c0-2.8,0.4-5.5,1.2-8.1c0.8-2.7,2.2-6,4.3-10l-1.8-1.2c0.6-1.5,1.3-3.4,2.3-5.6c1-2.2,1.8-4.1,2.6-5.6l4.9,2.9
		c2.2,1.3,4.2,2.7,6.2,4.2c2.8,2.1,4.7,4,5.7,5.9C1256.7,381.5,1257.2,383.7,1257.2,386.5z M1249.8,390.5c0-0.6-1.2-2-3.5-4
		c-2.3-2-4.6-3.7-6.9-5.2c-2.2,3.4-3.2,6.2-3.2,8.5c0,1.1,0.4,2,1.3,2.8s2,1.2,3.2,1.2c1.7,0,3.6-0.4,5.8-1.2
		S1249.8,391.1,1249.8,390.5z"/>
	<path class="st2" d="M1337.3,390.7c0,3-0.4,5.7-1.1,8.2s-2.1,5.8-4.1,10l-3-1.2c0.8-4.3,1.2-7.8,1.2-10.5c0-2.1-0.2-5.1-0.5-9
		s-0.8-7.9-1.3-11.8c-0.5-3.9-1.3-8.5-2.5-13.9c-0.4-1.9-0.6-3.2-0.6-3.9c0-1,0.5-2.8,1.6-5.3c1-2.5,2.5-5.5,4.4-9.1l3,17.9
		c1.1,6.8,1.9,12.7,2.3,17.6C1337.1,383.5,1337.3,387.2,1337.3,390.7z"/>
	<path class="st2" d="M1387.6,404.1c0,5.2-2.7,9.8-8.1,13.8c-5.4,4-11.5,6-18.4,6c-5.7,0-10.2-1.5-13.5-4.4c-3.2-2.9-4.9-7-4.9-12.2
		c0-4.9,0.6-9.1,1.8-12.8c1.4-4.1,4.1-9.1,8.1-15.1l3.1,2.1c-2.6,3.9-4.5,7.3-5.6,10.2c-1.1,2.9-1.7,5.8-1.7,8.6
		c0,3.1,1.1,5.4,3.4,7.1c2.3,1.7,5.5,2.5,9.6,2.5c5.9,0,10.7-1.1,14.4-3.4c3.7-2.3,5.5-5.3,5.5-9c0-0.6,0-1.1,0-1.5s0-0.7,0-0.9
		c0-1.3-0.1-2.8-0.3-4.3c-0.2-1.6-0.8-4.8-1.7-9.8c-1.4-8-2.9-16-4.3-24l-2.5-1.8c0-3.3,1.5-8.3,4.6-15.1l2.3,1.1
		c-0.1,0.5-0.2,1-0.2,1.6c0,1.3,0.7,2.4,2.1,3.3c2,1.1,4,2.2,5.8,3.3c-0.4,2.9-0.7,5-1.1,6.2c-0.4,1.2-1.1,3.1-2.3,5.6l-1.5-0.6
		c0,0.5,0.5,3.4,1.4,8.6s1.8,9.7,2.4,13.5c0.9,5.4,1.4,8.8,1.4,9.9V404.1z"/>
	<path class="st2" d="M1454.7,405.4h-42.3c-4.1,0-6.8-0.1-8.1-0.2c-1.3-0.1-2.8-0.5-4.3-1.1c-2.8-0.9-5-2.9-6.8-5.7
		c-1.8-2.9-2.7-6.1-2.7-9.7c0-1.4,0.1-2.6,0.2-3.7c0.1-1.1,0.4-2.4,0.8-3.9c0.6-2.2,1.2-4,1.9-5.5s1.9-3.5,3.7-6l2.8,2
		c-1.4,2.7-2.4,4.8-3,6.3c-0.5,1.5-0.8,3.1-0.8,4.6c0,1.9,0.6,3.6,1.8,5.2c1.2,1.5,2.8,2.5,4.8,3c1.2,0.3,2.7,0.5,4.6,0.7
		c1.9,0.2,3.9,0.3,6,0.3h36.5c-0.9-2.6-1.7-4.4-2.3-5.4c-0.7-1.3-1.8-2.9-3.4-4.9l4.5-11.7c2.5,3.6,4.2,6.9,4.9,9.9
		c0.7,2.6,1,6.5,1,11.6V405.4z M1435,416l-6.1,11.3l-11.7-6.4l6.1-11.5L1435,416z"/>
	<path class="st2" d="M1475.2,405.4h-24v-13.7h24V405.4z"/>
	<path class="st2" d="M1495.6,405.4h-24v-13.7h24V405.4z"/>
	<path class="st2" d="M1553.7,429.1l-19.5,12c-12,0-20.8-2.3-26.4-6.9c-5.8-4.7-8.7-12.1-8.7-22.2c0-7,1.4-13.1,4.1-18.4
		c2.8-5.3,7.1-10.1,13.1-14.3c-4,0-7.5,0.6-10.6,1.8c-1.1,0.4-3.6,1.6-7.6,3.4c1.6-12.5,7.6-18.8,17.9-18.8c1.5,0,4.1,0.2,7.6,0.5
		c3.5,0.4,6.6,0.6,9.3,0.8c5.1,0.3,10.2,0.5,15.1,0.5l-3,12.4c-12.9,1.6-22.7,4.7-29.5,9.3c-6.8,4.6-10.2,10.5-10.2,17.6
		c0,6.7,2.8,11.9,8.3,15.4c5.6,3.6,13.6,5.3,24,5.3c0.3,0,2.8-0.2,7.6-0.5c2.7-0.2,5.1-0.3,7.2-0.3L1553.7,429.1z"/>
	<path class="st2" d="M1599.9,406.5c0,2.1-1.2,4.8-3.5,8.1c-2.4,3.4-5.1,6.3-8.3,8.8c-3.5,2.8-6.5,4.1-9,4.1c-3,0-6.1-0.8-9.5-2.5
		c-3-1.4-7.6-4.3-13.9-8.7l2.1-3.1c3,2,5.5,3.4,7.3,4.1s3.8,1.1,6,1.1c2.3,0,4.6-0.7,7-2c2.3-1.3,5.5-3.7,9.5-7.3
		c5.6-5,8.4-8.8,8.4-11.5c0-1.3-0.5-3.1-1.6-5.3c-1.2-2.5-2.7-4.6-4.4-6.2l2.8-13.6c2.3,2.4,4.1,5.1,5.3,8.1
		c1.2,3.1,1.9,6.5,1.9,10.4V406.5z"/>
	<path class="st2" d="M1647.3,390.7c0,3-0.4,5.7-1.1,8.2s-2.1,5.8-4.1,10l-3-1.2c0.8-4.3,1.2-7.8,1.2-10.5c0-2.1-0.2-5.1-0.5-9
		s-0.8-7.9-1.3-11.8c-0.5-3.9-1.3-8.5-2.5-13.9c-0.4-1.9-0.6-3.2-0.6-3.9c0-1,0.5-2.8,1.6-5.3c1-2.5,2.5-5.5,4.4-9.1l3,17.9
		c1.1,6.8,1.9,12.7,2.3,17.6C1647.1,383.5,1647.3,387.2,1647.3,390.7z"/>
	<path class="st2" d="M1697.6,404.1c0,5.2-2.7,9.8-8.1,13.8c-5.4,4-11.5,6-18.4,6c-5.7,0-10.2-1.5-13.5-4.4c-3.2-2.9-4.9-7-4.9-12.2
		c0-4.9,0.6-9.1,1.8-12.8c1.4-4.1,4.1-9.1,8.1-15.1l3.1,2.1c-2.6,3.9-4.5,7.3-5.6,10.2c-1.1,2.9-1.7,5.8-1.7,8.6
		c0,3.1,1.1,5.4,3.4,7.1c2.3,1.7,5.5,2.5,9.6,2.5c5.9,0,10.7-1.1,14.4-3.4c3.7-2.3,5.5-5.3,5.5-9c0-0.6,0-1.1,0-1.5s0-0.7,0-0.9
		c0-1.3-0.1-2.8-0.3-4.3c-0.2-1.6-0.8-4.8-1.7-9.8c-1.4-8-2.9-16-4.3-24l-2.5-1.8c0-3.3,1.5-8.3,4.6-15.1l2.3,1.1
		c-0.1,0.5-0.2,1-0.2,1.6c0,1.3,0.7,2.4,2.1,3.3c2,1.1,4,2.2,5.8,3.3c-0.4,2.9-0.7,5-1.1,6.2c-0.4,1.2-1.1,3.1-2.3,5.6l-1.5-0.6
		c0,0.5,0.5,3.4,1.4,8.6s1.8,9.7,2.4,13.5c0.9,5.4,1.4,8.8,1.4,9.9V404.1z"/>
	<path class="st2" d="M1716.3,390.7c0,3-0.4,5.7-1.1,8.2s-2.1,5.8-4.1,10l-3-1.2c0.8-4.3,1.2-7.8,1.2-10.5c0-2.1-0.2-5.1-0.5-9
		s-0.8-7.9-1.3-11.8c-0.5-3.9-1.3-8.5-2.5-13.9c-0.4-1.9-0.6-3.2-0.6-3.9c0-1,0.5-2.8,1.6-5.3c1-2.5,2.5-5.5,4.4-9.1l3,17.9
		c1.1,6.8,1.9,12.7,2.3,17.6C1716.1,383.5,1716.3,387.2,1716.3,390.7z"/>
	<path class="st2" d="M1764.7,406.5c0,2.1-1.2,4.8-3.5,8.1c-2.4,3.4-5.1,6.3-8.3,8.8c-3.5,2.8-6.5,4.1-9,4.1c-3,0-6.1-0.8-9.5-2.5
		c-3-1.4-7.6-4.3-13.9-8.7l2.1-3.1c3,2,5.5,3.4,7.3,4.1s3.8,1.1,6,1.1c2.3,0,4.6-0.7,7-2c2.3-1.3,5.5-3.7,9.5-7.3
		c5.6-5,8.4-8.8,8.4-11.5c0-1.3-0.5-3.1-1.6-5.3c-1.2-2.5-2.7-4.6-4.4-6.2l2.8-13.6c2.3,2.4,4.1,5.1,5.3,8.1
		c1.2,3.1,1.9,6.5,1.9,10.4V406.5z M1762.1,354.8l-6.1,11.3l-11.8-6.2l6-11.4L1762.1,354.8z"/>
	<path class="st2" d="M1809.4,406.5c0,2.1-1.2,4.8-3.5,8.1c-2.4,3.4-5.1,6.3-8.3,8.8c-3.5,2.8-6.5,4.1-9,4.1c-3,0-6.1-0.8-9.5-2.5
		c-3-1.4-7.6-4.3-13.9-8.7l2.1-3.1c3,2,5.5,3.4,7.3,4.1s3.8,1.1,6,1.1c2.3,0,4.6-0.7,7-2c2.3-1.3,5.5-3.7,9.5-7.3
		c5.6-5,8.4-8.8,8.4-11.5c0-1.3-0.5-3.1-1.6-5.3c-1.2-2.5-2.7-4.6-4.4-6.2l2.8-13.6c2.3,2.4,4.1,5.1,5.3,8.1
		c1.2,3.1,1.9,6.5,1.9,10.4V406.5z"/>
	<path class="st2" d="M1872.6,406.7c0,6.6-0.4,11-1.1,13.1c-0.7,2.1-2.5,4.3-5.3,6.5c-6.1,4.8-14.7,7.2-25.8,7.2
		c-9.3,0-16.5-1.5-21.5-4.6c-5-3.1-7.5-7.4-7.5-13.2c0-4.9,0.8-9.4,2.3-13.5c1.7-4.4,4.9-9.9,9.6-16.4l3,2.1
		c-3.1,4.4-5.2,8.2-6.5,11.2c-1.3,3.1-1.9,6-1.9,8.9c0,4.1,2.1,7.3,6.4,9.6c4.2,2.3,10.2,3.4,17.9,3.4c6.9,0,13-1.3,18.4-4
		c5.3-2.7,8-5.7,8-9.2c0-0.4,0-0.9,0-1.4c0-0.5-0.1-1-0.3-1.7c-3.5,0.3-6.2,0.5-7.9,0.5c-3.7,0-6.6-0.9-8.7-2.8
		c-2.1-1.8-3.1-4.5-3.1-7.8c0-4.9,1.2-9.9,3.7-14.8c2.7-5.3,5.7-7.9,9-7.9c3.6,0,6.5,2.6,8.6,7.8c1.9,4.8,2.9,10.7,2.9,17.8V406.7z
		 M1870.5,357.3l-5.5,10.3l-7.2-4l-4,8l-9.4-5.1l5.2-9.8l7.5,3.7l4.2-8.2L1870.5,357.3z M1863.5,391.6c-0.9-2.1-1.8-3.6-2.8-4.4
		s-2.1-1.3-3.4-1.3c-0.8,0-1.5,0.3-2,0.8c-0.5,0.5-0.7,1.2-0.7,2c0,2.2,1.4,3.3,4.2,3.3c1,0,1.7,0,2.2-0.1
		C1861.5,391.9,1862.3,391.8,1863.5,391.6z"/>
	<path class="st2" d="M1947.9,404.1c0,5.2-2.7,9.8-8.1,13.8c-5.4,4-11.5,6-18.4,6c-5.7,0-10.2-1.5-13.5-4.4c-3.2-2.9-4.9-7-4.9-12.2
		c0-4.9,0.6-9.1,1.8-12.8c1.4-4.1,4.1-9.1,8.1-15.1l3.1,2.1c-2.6,3.9-4.5,7.3-5.6,10.2c-1.1,2.9-1.7,5.8-1.7,8.6
		c0,3.1,1.1,5.4,3.4,7.1c2.3,1.7,5.5,2.5,9.6,2.5c5.9,0,10.7-1.1,14.4-3.4c3.7-2.3,5.5-5.3,5.5-9c0-0.6,0-1.1,0-1.5s0-0.7,0-0.9
		c0-1.3-0.1-2.8-0.3-4.3c-0.2-1.6-0.8-4.8-1.7-9.8c-1.4-8-2.9-16-4.3-24l-2.5-1.8c0-3.3,1.5-8.3,4.6-15.1l2.3,1.1
		c-0.1,0.5-0.2,1-0.2,1.6c0,1.3,0.7,2.4,2.1,3.3c2,1.1,4,2.2,5.8,3.3c-0.4,2.9-0.7,5-1.1,6.2c-0.4,1.2-1.1,3.1-2.3,5.6l-1.5-0.6
		c0,0.5,0.5,3.4,1.4,8.6s1.8,9.7,2.4,13.5c0.9,5.4,1.4,8.8,1.4,9.9V404.1z"/>
	<path class="st2" d="M1994.5,404.1c0,5.2-2.7,9.8-8.1,13.8c-5.4,4-11.5,6-18.4,6c-5.7,0-10.2-1.5-13.5-4.4c-3.2-2.9-4.9-7-4.9-12.2
		c0-4.9,0.6-9.1,1.8-12.8c1.4-4.1,4.1-9.1,8.1-15.1l3.1,2.1c-2.6,3.9-4.5,7.3-5.6,10.2c-1.1,2.9-1.7,5.8-1.7,8.6
		c0,3.1,1.1,5.4,3.4,7.1c2.3,1.7,5.5,2.5,9.6,2.5c5.9,0,10.7-1.1,14.4-3.4c3.7-2.3,5.5-5.3,5.5-9c0-0.6,0-1.1,0-1.5s0-0.7,0-0.9
		c0-1.3-0.1-2.8-0.3-4.3c-0.2-1.6-0.8-4.8-1.7-9.8c-1.4-8-2.9-16-4.3-24l-2.5-1.8c0-3.3,1.5-8.3,4.6-15.1l2.3,1.1
		c-0.1,0.5-0.2,1-0.2,1.6c0,1.3,0.7,2.4,2.1,3.3c2,1.1,4,2.2,5.8,3.3c-0.4,2.9-0.7,5-1.1,6.2c-0.4,1.2-1.1,3.1-2.3,5.6l-1.5-0.6
		c0,0.5,0.5,3.4,1.4,8.6s1.8,9.7,2.4,13.5c0.9,5.4,1.4,8.8,1.4,9.9V404.1z"/>
	<path class="st2" d="M2014.9,405.4h-24v-13.7h24V405.4z"/>
	<path class="st2" d="M2035.4,405.4h-24v-13.7h24V405.4z"/>
	<path class="st2" d="M2055.9,405.4h-24v-13.7h24V405.4z"/>
	<path class="st2" d="M2093.1,405.4l-6.6,0c-6.2,0-11.6,0.5-16.3,1.6s-7.1,2.2-7.1,3.6c1.3,4,2.5,7.8,3.5,11.3c1,3.5,1.5,6.9,1.5,10
		c0,2.3-0.2,4.1-0.7,5.5c-0.5,1.4-1.3,3-2.5,4.6c-0.4-4.4-1.2-9.1-2.5-14c-0.4-1.7-1.5-5.3-3.3-10.8c-1.1-3.4-1.6-5.6-1.6-6.8
		c0-1.6,0.4-3.5,1.3-5.9c0.7-1.9,1.5-3.6,2.4-5.1c1.1-1.7,3-3,5.6-4c2.7-1,6.7-1.8,12.2-2.4c-2.7-3.8-5-5.6-7.1-5.6
		c-0.9,0-1.7,0.3-2.5,1c-0.8,0.7-2,2.2-3.8,4.4l-2.4-1.2c1.5-5.1,3.3-9.1,5.5-11.9c2.2-2.8,4.5-4.2,7.1-4.2c2.3,0,4.8,1.3,7.5,3.9
		c2.8,2.6,6,6.6,9.6,12.1V405.4z"/>
	<path class="st2" d="M2113.6,405.4h-24v-13.7h24V405.4z"/>
	<path class="st2" d="M2134,405.4h-24v-13.7h24V405.4z"/>
	<path class="st2" d="M2154.5,405.4h-24v-13.7h24V405.4z"/>
	<path class="st2" d="M2201.1,404.1c0,5.2-2.7,9.8-8.1,13.8c-5.4,4-11.5,6-18.4,6c-5.7,0-10.2-1.5-13.5-4.4c-3.2-2.9-4.9-7-4.9-12.2
		c0-4.9,0.6-9.1,1.8-12.8c1.4-4.1,4.1-9.1,8.1-15.1l3.1,2.1c-2.6,3.9-4.5,7.3-5.6,10.2c-1.1,2.9-1.7,5.8-1.7,8.6
		c0,3.1,1.1,5.4,3.4,7.1c2.3,1.7,5.5,2.5,9.6,2.5c5.9,0,10.7-1.1,14.4-3.4c3.7-2.3,5.5-5.3,5.5-9c0-0.6,0-1.1,0-1.5s0-0.7,0-0.9
		c0-1.3-0.1-2.8-0.3-4.3c-0.2-1.6-0.8-4.8-1.7-9.8c-1.4-8-2.9-16-4.3-24l-2.5-1.8c0-3.3,1.5-8.3,4.6-15.1l2.3,1.1
		c-0.1,0.5-0.2,1-0.2,1.6c0,1.3,0.7,2.4,2.1,3.3c2,1.1,4,2.2,5.8,3.3c-0.4,2.9-0.7,5-1.1,6.2c-0.4,1.2-1.1,3.1-2.3,5.6l-1.5-0.6
		c0,0.5,0.5,3.4,1.4,8.6s1.8,9.7,2.4,13.5c0.9,5.4,1.4,8.8,1.4,9.9V404.1z"/>
	<path class="st2" d="M2219.8,390.7c0,3-0.4,5.7-1.1,8.2s-2.1,5.8-4.1,10l-3-1.2c0.8-4.3,1.2-7.8,1.2-10.5c0-2.1-0.2-5.1-0.5-9
		s-0.8-7.9-1.3-11.8c-0.5-3.9-1.3-8.5-2.5-13.9c-0.4-1.9-0.6-3.2-0.6-3.9c0-1,0.5-2.8,1.6-5.3c1-2.5,2.5-5.5,4.4-9.1l3,17.9
		c1.1,6.8,1.9,12.7,2.3,17.6C2219.6,383.5,2219.8,387.2,2219.8,390.7z"/>
	<path class="st2" d="M2310.3,429.1l-19.5,12c-12,0-20.8-2.3-26.4-6.9c-5.8-4.7-8.7-12.1-8.7-22.2c0-7,1.4-13.1,4.1-18.4
		c2.8-5.3,7.1-10.1,13.1-14.3c-4,0-7.5,0.6-10.6,1.8c-1.1,0.4-3.6,1.6-7.6,3.4c1.6-12.5,7.6-18.8,17.9-18.8c1.5,0,4.1,0.2,7.6,0.5
		c3.5,0.4,6.6,0.6,9.3,0.8c5.1,0.3,10.2,0.5,15.1,0.5l-3,12.4c-12.9,1.6-22.7,4.7-29.5,9.3c-6.8,4.6-10.2,10.5-10.2,17.6
		c0,6.7,2.8,11.9,8.3,15.4c5.6,3.6,13.6,5.3,24,5.3c0.3,0,2.8-0.2,7.6-0.5c2.7-0.2,5.1-0.3,7.2-0.3L2310.3,429.1z"/>
	<path class="st2" d="M2340.6,346.5l-5.5,10.3l-7.2-4l-4,8l-9.4-5.1l5.2-9.8l7.5,3.7l4.2-8.2L2340.6,346.5z M2343.2,386.5
		c0,2-0.2,4.1-0.5,6.1c-0.3,2.1-0.7,3.8-1.2,5.1c-0.9,2.6-3.3,4.8-7,6.8c-3.4,1.8-6.7,2.7-9.7,2.7c-2.6,0-4.7-0.9-6.3-2.7
		s-2.3-4.2-2.3-7.3c0-2.8,0.4-5.5,1.2-8.1c0.8-2.7,2.2-6,4.3-10l-1.8-1.2c0.6-1.5,1.3-3.4,2.3-5.6c1-2.2,1.8-4.1,2.6-5.6l4.9,2.9
		c2.2,1.3,4.2,2.7,6.2,4.2c2.8,2.1,4.7,4,5.7,5.9C2342.6,381.5,2343.2,383.7,2343.2,386.5z M2335.7,390.5c0-0.6-1.2-2-3.5-4
		c-2.3-2-4.6-3.7-6.9-5.2c-2.2,3.4-3.2,6.2-3.2,8.5c0,1.1,0.4,2,1.3,2.8s2,1.2,3.2,1.2c1.7,0,3.6-0.4,5.8-1.2
		S2335.7,391.1,2335.7,390.5z"/>
</g>
<g>
	<path class="st2" d="M881.7,534c5.1,1.1,8.9,2.8,11.4,5.2c3.5,3.3,5.3,7.4,5.3,12.2c0,3.6-1.2,7.1-3.5,10.5
		c-2.3,3.3-5.5,5.8-9.5,7.3c-4,1.5-10.2,2.3-18.4,2.3h-34.7v-2h2.8c3.1,0,5.3-1,6.6-2.9c0.8-1.3,1.2-4,1.2-8.1V511
		c0-4.5-0.5-7.4-1.6-8.6c-1.4-1.6-3.5-2.4-6.3-2.4h-2.8v-2H864c5.9,0,10.7,0.4,14.2,1.3c5.4,1.3,9.5,3.6,12.4,6.9s4.3,7.1,4.3,11.4
		c0,3.7-1.1,7-3.4,9.9C889.4,530.4,886.1,532.6,881.7,534z M853.3,531.1c1.3,0.3,2.9,0.4,4.6,0.6c1.7,0.1,3.6,0.2,5.7,0.2
		c5.3,0,9.2-0.6,11.9-1.7c2.7-1.1,4.7-2.9,6.1-5.2c1.4-2.3,2.1-4.9,2.1-7.7c0-4.3-1.8-8-5.3-11c-3.5-3-8.6-4.5-15.3-4.5
		c-3.6,0-6.9,0.4-9.7,1.2V531.1z M853.3,566.1c4.2,1,8.3,1.5,12.4,1.5c6.5,0,11.5-1.5,14.9-4.4c3.4-2.9,5.1-6.6,5.1-10.9
		c0-2.9-0.8-5.6-2.3-8.2c-1.6-2.6-4.1-4.7-7.6-6.2c-3.5-1.5-7.8-2.3-13-2.3c-2.2,0-4.2,0-5.7,0.1c-1.6,0.1-2.9,0.2-3.8,0.4V566.1z"
		/>
	<path class="st2" d="M968,551.1l1.8,0.4l-6.3,19.9h-56.9v-2h2.8c3.1,0,5.3-1,6.7-3c0.8-1.2,1.1-3.8,1.1-8V511
		c0-4.6-0.5-7.5-1.5-8.6c-1.4-1.6-3.5-2.4-6.3-2.4h-2.8v-2h33.2v2c-3.9,0-6.6,0.3-8.2,1.1c-1.6,0.8-2.6,1.7-3.2,2.9
		c-0.6,1.2-0.9,3.9-0.9,8.3v46.1c0,3,0.3,5.1,0.9,6.2c0.4,0.8,1.1,1.3,2,1.7c0.9,0.4,3.7,0.5,8.4,0.5h5.4c5.6,0,9.6-0.4,11.9-1.2
		c2.3-0.8,4.3-2.3,6.2-4.4C964.3,559,966.1,555.7,968,551.1z"/>
	<path class="st2" d="M1025.1,500v-2h26v2h-2.8c-2.9,0-5.1,1.2-6.7,3.6c-0.8,1.1-1.1,3.7-1.1,7.8v29.8c0,7.4-0.7,13.1-2.2,17.1
		s-4.3,7.5-8.6,10.5s-10.1,4.4-17.5,4.4c-8,0-14.1-1.4-18.2-4.2c-4.2-2.8-7.1-6.5-8.8-11.2c-1.2-3.2-1.7-9.2-1.7-18.1V511
		c0-4.5-0.6-7.5-1.9-8.9c-1.2-1.4-3.3-2.1-6-2.1h-2.8v-2h31.7v2h-2.8c-3,0-5.2,1-6.5,2.9c-0.9,1.3-1.4,4-1.4,8.1v32
		c0,2.9,0.3,6.1,0.8,9.8c0.5,3.7,1.5,6.6,2.8,8.6c1.4,2.1,3.3,3.8,5.9,5.1c2.6,1.3,5.7,2,9.5,2c4.8,0,9.1-1,12.9-3.1
		c3.8-2.1,6.4-4.8,7.8-8s2.1-8.8,2.1-16.6V511c0-4.6-0.5-7.5-1.5-8.6c-1.4-1.6-3.5-2.4-6.3-2.4H1025.1z"/>
	<path class="st2" d="M1075.4,502v29h16.1c4.2,0,7-0.6,8.4-1.9c1.9-1.7,2.9-4.6,3.1-8.8h2v25.6h-2c-0.5-3.6-1-5.9-1.5-6.9
		c-0.6-1.3-1.7-2.3-3.2-3c-1.5-0.7-3.8-1.1-6.8-1.1h-16.1v24.2c0,3.2,0.1,5.2,0.4,5.9c0.3,0.7,0.8,1.3,1.5,1.7
		c0.7,0.4,2.1,0.6,4.1,0.6h12.5c4.2,0,7.2-0.3,9-0.9c1.9-0.6,3.7-1.7,5.4-3.4c2.2-2.2,4.5-5.6,6.9-10.1h2.2l-6.3,18.4h-56.6v-2h2.6
		c1.7,0,3.4-0.4,4.9-1.2c1.2-0.6,1.9-1.4,2.4-2.6s0.6-3.5,0.6-7.1v-47.7c0-4.7-0.5-7.5-1.4-8.6c-1.3-1.4-3.5-2.2-6.5-2.2h-2.6v-2
		h56.6l0.8,16.1h-2.1c-0.8-3.9-1.6-6.5-2.5-8c-0.9-1.4-2.3-2.5-4.1-3.3c-1.4-0.5-4-0.8-7.6-0.8H1075.4z"/>
	<path class="st2" d="M1198.6,496.3v25.4h-2c-0.6-4.9-1.8-8.8-3.5-11.6c-1.7-2.9-4.1-5.2-7.2-6.9c-3.1-1.7-6.3-2.5-9.6-2.5
		c-3.8,0-6.9,1.1-9.3,3.4c-2.5,2.3-3.7,4.9-3.7,7.8c0,2.2,0.8,4.3,2.3,6.1c2.2,2.7,7.6,6.3,16,10.8c6.9,3.7,11.5,6.5,14.1,8.5
		c2.5,2,4.4,4.3,5.8,7c1.4,2.7,2,5.5,2,8.4c0,5.6-2.2,10.4-6.5,14.4c-4.3,4-9.9,6-16.6,6c-2.1,0-4.1-0.2-6-0.5c-1.1-0.2-3.4-0.8-7-2
		s-5.7-1.7-6.7-1.7c-0.9,0-1.6,0.3-2.1,0.8c-0.5,0.5-0.9,1.7-1.2,3.4h-2v-25.2h2c0.9,5.3,2.2,9.2,3.8,11.8c1.6,2.6,4,4.8,7.3,6.5
		c3.3,1.7,6.8,2.6,10.7,2.6c4.5,0,8.1-1.2,10.7-3.6c2.6-2.4,3.9-5.2,3.9-8.4c0-1.8-0.5-3.6-1.5-5.5c-1-1.8-2.5-3.6-4.6-5.1
		c-1.4-1.1-5.3-3.4-11.5-6.9c-6.3-3.5-10.7-6.3-13.4-8.4s-4.7-4.4-6-6.9c-1.4-2.5-2.1-5.3-2.1-8.3c0-5.3,2-9.8,6.1-13.6
		c4-3.8,9.2-5.7,15.4-5.7c3.9,0,8,1,12.4,2.9c2,0.9,3.4,1.4,4.3,1.4c0.9,0,1.7-0.3,2.3-0.8s1.1-1.7,1.4-3.4H1198.6z"/>
	<path class="st2" d="M1232.6,502v29h16.1c4.2,0,7-0.6,8.4-1.9c1.9-1.7,2.9-4.6,3.1-8.8h2v25.6h-2c-0.5-3.6-1-5.9-1.5-6.9
		c-0.6-1.3-1.7-2.3-3.2-3c-1.5-0.7-3.8-1.1-6.8-1.1h-16.1v24.2c0,3.2,0.1,5.2,0.4,5.9c0.3,0.7,0.8,1.3,1.5,1.7
		c0.7,0.4,2.1,0.6,4.1,0.6h12.5c4.2,0,7.2-0.3,9-0.9c1.9-0.6,3.7-1.7,5.4-3.4c2.2-2.2,4.5-5.6,6.9-10.1h2.2l-6.3,18.4h-56.6v-2h2.6
		c1.7,0,3.4-0.4,4.9-1.2c1.2-0.6,1.9-1.4,2.4-2.6s0.6-3.5,0.6-7.1v-47.7c0-4.7-0.5-7.5-1.4-8.6c-1.3-1.4-3.5-2.2-6.5-2.2h-2.6v-2
		h56.6l0.8,16.1h-2.1c-0.8-3.9-1.6-6.5-2.5-8c-0.9-1.4-2.3-2.5-4.1-3.3c-1.4-0.5-4-0.8-7.6-0.8H1232.6z"/>
	<path class="st2" d="M1327.9,546.9h-28.4l-5,11.6c-1.2,2.9-1.8,5-1.8,6.4c0,1.1,0.5,2.1,1.6,3c1.1,0.8,3.4,1.4,6.9,1.7v2H1278v-2
		c3.1-0.5,5.1-1.2,6-2.1c1.8-1.7,3.9-5.3,6.1-10.6l25.8-60.4h1.9l25.6,61.1c2.1,4.9,3.9,8.1,5.6,9.6s4,2.3,7,2.5v2h-29v-2
		c2.9-0.1,4.9-0.6,5.9-1.5c1-0.8,1.5-1.8,1.5-3c0-1.6-0.7-4.1-2.2-7.5L1327.9,546.9z M1326.3,542.9l-12.5-29.7l-12.8,29.7H1326.3z"
		/>
	<path class="st2" d="M1429.6,496.3v25.4h-2c-0.6-4.9-1.8-8.8-3.5-11.6c-1.7-2.9-4.1-5.2-7.2-6.9c-3.1-1.7-6.3-2.5-9.6-2.5
		c-3.8,0-6.9,1.1-9.3,3.4c-2.5,2.3-3.7,4.9-3.7,7.8c0,2.2,0.8,4.3,2.3,6.1c2.2,2.7,7.6,6.3,16,10.8c6.9,3.7,11.5,6.5,14.1,8.5
		c2.5,2,4.4,4.3,5.8,7c1.4,2.7,2,5.5,2,8.4c0,5.6-2.2,10.4-6.5,14.4c-4.3,4-9.9,6-16.6,6c-2.1,0-4.1-0.2-6-0.5c-1.1-0.2-3.4-0.8-7-2
		s-5.7-1.7-6.7-1.7c-0.9,0-1.6,0.3-2.1,0.8c-0.5,0.5-0.9,1.7-1.2,3.4h-2v-25.2h2c0.9,5.3,2.2,9.2,3.8,11.8c1.6,2.6,4,4.8,7.3,6.5
		c3.3,1.7,6.8,2.6,10.7,2.6c4.5,0,8.1-1.2,10.7-3.6c2.6-2.4,3.9-5.2,3.9-8.4c0-1.8-0.5-3.6-1.5-5.5c-1-1.8-2.5-3.6-4.6-5.1
		c-1.4-1.1-5.3-3.4-11.5-6.9c-6.3-3.5-10.7-6.3-13.4-8.4s-4.7-4.4-6-6.9c-1.4-2.5-2.1-5.3-2.1-8.3c0-5.3,2-9.8,6.1-13.6
		c4-3.8,9.2-5.7,15.4-5.7c3.9,0,8,1,12.4,2.9c2,0.9,3.4,1.4,4.3,1.4c0.9,0,1.7-0.3,2.3-0.8s1.1-1.7,1.4-3.4H1429.6z"/>
	<path class="st2" d="M1463.3,532.1h34.1v-21c0-3.8-0.2-6.2-0.7-7.4c-0.4-0.9-1.1-1.7-2.3-2.3c-1.6-0.9-3.2-1.3-4.9-1.3h-2.6v-2
		h31.4v2h-2.6c-1.7,0-3.4,0.4-4.9,1.2c-1.2,0.6-1.9,1.5-2.4,2.6c-0.4,1.2-0.6,3.6-0.6,7.2v47.4c0,3.7,0.2,6.2,0.7,7.4
		c0.4,0.9,1.1,1.7,2.2,2.3c1.6,0.9,3.2,1.3,5,1.3h2.6v2h-31.4v-2h2.6c3,0,5.2-0.9,6.6-2.7c0.9-1.2,1.4-3.9,1.4-8.3v-22.4h-34.1v22.4
		c0,3.7,0.2,6.2,0.7,7.4c0.4,0.9,1.1,1.7,2.3,2.3c1.6,0.9,3.2,1.3,4.9,1.3h2.7v2h-31.5v-2h2.6c3,0,5.2-0.9,6.6-2.7
		c0.9-1.2,1.3-3.9,1.3-8.3v-47.4c0-3.8-0.2-6.2-0.7-7.4c-0.4-0.9-1.1-1.7-2.2-2.3c-1.6-0.9-3.2-1.3-5-1.3h-2.6v-2h31.5v2h-2.7
		c-1.7,0-3.4,0.4-4.9,1.2c-1.1,0.6-1.9,1.5-2.3,2.6c-0.4,1.2-0.6,3.6-0.6,7.2V532.1z"/>
	<path class="st2" d="M1554.8,569.4v2h-31.5v-2h2.6c3,0,5.2-0.9,6.6-2.7c0.9-1.2,1.3-3.9,1.3-8.3V511c0-3.7-0.2-6.2-0.7-7.4
		c-0.4-0.9-1.1-1.7-2.2-2.3c-1.6-0.9-3.2-1.3-5-1.3h-2.6v-2h31.5v2h-2.7c-3,0-5.2,0.9-6.6,2.7c-0.9,1.2-1.4,3.9-1.4,8.3v47.4
		c0,3.7,0.2,6.2,0.7,7.4c0.4,0.9,1.1,1.7,2.3,2.3c1.6,0.9,3.2,1.3,4.9,1.3H1554.8z"/>
	<path class="st2" d="M1580.2,537.1v21.4c0,4.6,0.5,7.5,1.5,8.6c1.4,1.6,3.4,2.4,6.2,2.4h2.8v2h-31.5v-2h2.8c3.1,0,5.3-1,6.7-3
		c0.7-1.1,1.1-3.8,1.1-8V511c0-4.6-0.5-7.5-1.5-8.6c-1.4-1.6-3.5-2.4-6.3-2.4h-2.8v-2h26.9c6.6,0,11.7,0.7,15.5,2
		c3.8,1.4,7,3.6,9.6,6.8c2.6,3.2,3.9,7,3.9,11.4c0,6-2,10.9-5.9,14.6c-4,3.8-9.5,5.6-16.8,5.6c-1.8,0-3.7-0.1-5.7-0.4
		C1584.8,538,1582.6,537.6,1580.2,537.1z M1580.2,534c1.9,0.4,3.6,0.6,5.1,0.8c1.5,0.2,2.7,0.3,3.8,0.3c3.8,0,7-1.5,9.7-4.4
		c2.7-2.9,4.1-6.7,4.1-11.3c0-3.2-0.6-6.1-1.9-8.9s-3.1-4.8-5.5-6.1c-2.4-1.4-5.1-2-8.1-2c-1.8,0-4.2,0.3-7.1,1V534z"/>
	<path class="st2" d="M1641.9,537.1v21.4c0,4.6,0.5,7.5,1.5,8.6c1.4,1.6,3.4,2.4,6.2,2.4h2.8v2H1621v-2h2.8c3.1,0,5.3-1,6.7-3
		c0.7-1.1,1.1-3.8,1.1-8V511c0-4.6-0.5-7.5-1.5-8.6c-1.4-1.6-3.5-2.4-6.3-2.4h-2.8v-2h26.9c6.6,0,11.7,0.7,15.5,2
		c3.8,1.4,7,3.6,9.6,6.8c2.6,3.2,3.9,7,3.9,11.4c0,6-2,10.9-5.9,14.6c-4,3.8-9.5,5.6-16.8,5.6c-1.8,0-3.7-0.1-5.7-0.4
		C1646.4,538,1644.2,537.6,1641.9,537.1z M1641.9,534c1.9,0.4,3.6,0.6,5.1,0.8c1.5,0.2,2.7,0.3,3.8,0.3c3.8,0,7-1.5,9.7-4.4
		c2.7-2.9,4.1-6.7,4.1-11.3c0-3.2-0.6-6.1-1.9-8.9s-3.1-4.8-5.5-6.1c-2.4-1.4-5.1-2-8.1-2c-1.8,0-4.2,0.3-7.1,1V534z"/>
	<path class="st2" d="M1715,569.4v2h-31.5v-2h2.6c3,0,5.2-0.9,6.6-2.7c0.9-1.2,1.3-3.9,1.3-8.3V511c0-3.7-0.2-6.2-0.7-7.4
		c-0.4-0.9-1.1-1.7-2.2-2.3c-1.6-0.9-3.2-1.3-5-1.3h-2.6v-2h31.5v2h-2.7c-3,0-5.2,0.9-6.6,2.7c-0.9,1.2-1.4,3.9-1.4,8.3v47.4
		c0,3.7,0.2,6.2,0.7,7.4c0.4,0.9,1.1,1.7,2.3,2.3c1.6,0.9,3.2,1.3,4.9,1.3H1715z"/>
	<path class="st2" d="M1716.3,498h19.9l44.9,55.1v-42.3c0-4.5-0.5-7.3-1.5-8.4c-1.3-1.5-3.4-2.3-6.3-2.3h-2.5v-2h25.6v2h-2.6
		c-3.1,0-5.3,0.9-6.6,2.8c-0.8,1.2-1.2,3.8-1.2,7.9v61.9h-1.9l-48.4-59.1v45.2c0,4.5,0.5,7.3,1.5,8.4c1.4,1.5,3.5,2.3,6.3,2.3h2.6v2
		h-25.6v-2h2.5c3.1,0,5.4-0.9,6.7-2.8c0.8-1.2,1.2-3.8,1.2-7.9v-51.1c-2.1-2.5-3.7-4.1-4.8-4.9c-1.1-0.8-2.7-1.5-4.8-2.2
		c-1-0.3-2.6-0.5-4.8-0.5V498z"/>
	<path class="st2" d="M1865.9,496.3l1.9,23.2h-1.9c-1.9-5.8-4.4-10.1-7.4-13c-4.4-4.2-10-6.3-16.8-6.3c-9.3,0-16.5,3.7-21.3,11.1
		c-4.1,6.2-6.1,13.7-6.1,22.3c0,7,1.4,13.4,4.1,19.2c2.7,5.8,6.3,10,10.6,12.7c4.4,2.7,8.9,4,13.5,4c2.7,0,5.3-0.3,7.9-1
		c2.5-0.7,5-1.7,7.3-3v-21.2c0-3.7-0.3-6.1-0.8-7.2c-0.6-1.1-1.4-2-2.6-2.6c-1.2-0.6-3.2-0.9-6.2-0.9v-2.1h28.4v2.1h-1.4
		c-2.8,0-4.7,0.9-5.8,2.8c-0.7,1.3-1.1,4-1.1,7.9v22.5c-4.2,2.2-8.2,3.9-12.3,4.9c-4,1-8.5,1.6-13.5,1.6c-14.2,0-25-4.5-32.3-13.6
		c-5.5-6.8-8.3-14.7-8.3-23.6c0-6.5,1.6-12.7,4.7-18.6c3.7-7,8.7-12.5,15.2-16.2c5.4-3.1,11.7-4.7,19.1-4.7c2.7,0,5.1,0.2,7.3,0.6
		c2.2,0.4,5.3,1.4,9.3,2.9c2,0.8,3.4,1.1,4.1,1.1s1.3-0.3,1.8-0.9c0.5-0.6,0.8-1.9,0.9-3.7H1865.9z"/>
	<path class="st2" d="M1950.3,546.9h-28.4l-5,11.6c-1.2,2.9-1.8,5-1.8,6.4c0,1.1,0.5,2.1,1.6,3c1.1,0.8,3.4,1.4,6.9,1.7v2h-23.1v-2
		c3.1-0.5,5.1-1.2,6-2.1c1.8-1.7,3.9-5.3,6.1-10.6l25.8-60.4h1.9l25.6,61.1c2.1,4.9,3.9,8.1,5.6,9.6s4,2.3,7,2.5v2h-29v-2
		c2.9-0.1,4.9-0.6,5.9-1.5c1-0.8,1.5-1.8,1.5-3c0-1.6-0.7-4.1-2.2-7.5L1950.3,546.9z M1948.7,542.9l-12.5-29.7l-12.8,29.7H1948.7z"
		/>
	<path class="st2" d="M2047.7,496.3l1.9,23.2h-1.9c-1.9-5.8-4.4-10.1-7.4-13c-4.4-4.2-10-6.3-16.8-6.3c-9.3,0-16.5,3.7-21.3,11.1
		c-4.1,6.2-6.1,13.7-6.1,22.3c0,7,1.4,13.4,4.1,19.2c2.7,5.8,6.3,10,10.6,12.7c4.4,2.7,8.9,4,13.5,4c2.7,0,5.3-0.3,7.9-1
		c2.5-0.7,5-1.7,7.3-3v-21.2c0-3.7-0.3-6.1-0.8-7.2c-0.6-1.1-1.4-2-2.6-2.6c-1.2-0.6-3.2-0.9-6.2-0.9v-2.1h28.4v2.1h-1.4
		c-2.8,0-4.7,0.9-5.8,2.8c-0.7,1.3-1.1,4-1.1,7.9v22.5c-4.2,2.2-8.2,3.9-12.3,4.9c-4,1-8.5,1.6-13.5,1.6c-14.2,0-25-4.5-32.3-13.6
		c-5.5-6.8-8.3-14.7-8.3-23.6c0-6.5,1.6-12.7,4.7-18.6c3.7-7,8.7-12.5,15.2-16.2c5.4-3.1,11.7-4.7,19.1-4.7c2.7,0,5.1,0.2,7.3,0.6
		c2.2,0.4,5.3,1.4,9.3,2.9c2,0.8,3.4,1.1,4.1,1.1s1.3-0.3,1.8-0.9c0.5-0.6,0.8-1.9,0.9-3.7H2047.7z"/>
	<path class="st2" d="M2082.9,502v29h16.1c4.2,0,7-0.6,8.4-1.9c1.9-1.7,2.9-4.6,3.1-8.8h2v25.6h-2c-0.5-3.6-1-5.9-1.5-6.9
		c-0.6-1.3-1.7-2.3-3.2-3c-1.5-0.7-3.8-1.1-6.8-1.1h-16.1v24.2c0,3.2,0.1,5.2,0.4,5.9c0.3,0.7,0.8,1.3,1.5,1.7
		c0.7,0.4,2.1,0.6,4.1,0.6h12.5c4.2,0,7.2-0.3,9-0.9c1.9-0.6,3.7-1.7,5.4-3.4c2.2-2.2,4.5-5.6,6.9-10.1h2.2l-6.3,18.4H2062v-2h2.6
		c1.7,0,3.4-0.4,4.9-1.2c1.2-0.6,1.9-1.4,2.4-2.6s0.6-3.5,0.6-7.1v-47.7c0-4.7-0.5-7.5-1.4-8.6c-1.3-1.4-3.5-2.2-6.5-2.2h-2.6v-2
		h56.6l0.8,16.1h-2.1c-0.8-3.9-1.6-6.5-2.5-8c-0.9-1.4-2.3-2.5-4.1-3.3c-1.4-0.5-4-0.8-7.6-0.8H2082.9z"/>
	<path class="st2" d="M2126,498h19.9l44.9,55.1v-42.3c0-4.5-0.5-7.3-1.5-8.4c-1.3-1.5-3.4-2.3-6.3-2.3h-2.5v-2h25.6v2h-2.6
		c-3.1,0-5.3,0.9-6.6,2.8c-0.8,1.2-1.2,3.8-1.2,7.9v61.9h-1.9l-48.4-59.1v45.2c0,4.5,0.5,7.3,1.5,8.4c1.4,1.5,3.5,2.3,6.3,2.3h2.6v2
		H2130v-2h2.5c3.1,0,5.4-0.9,6.7-2.8c0.8-1.2,1.2-3.8,1.2-7.9v-51.1c-2.1-2.5-3.7-4.1-4.8-4.9c-1.1-0.8-2.7-1.5-4.8-2.2
		c-1-0.3-2.6-0.5-4.8-0.5V498z"/>
	<path class="st2" d="M2274.3,496.3l1.7,25h-1.7c-2.2-7.5-5.4-12.8-9.6-16.1c-4.2-3.3-9.1-4.9-14.9-4.9c-4.9,0-9.3,1.2-13.2,3.7
		c-3.9,2.5-7,6.4-9.3,11.8c-2.3,5.4-3.4,12.1-3.4,20.2c0,6.6,1.1,12.4,3.2,17.3s5.3,8.6,9.6,11.2c4.3,2.6,9.2,3.9,14.6,3.9
		c4.8,0,9-1,12.6-3.1c3.6-2,7.7-6.1,12-12.2l1.7,1.1c-3.7,6.5-8,11.3-12.9,14.3c-4.9,3-10.7,4.5-17.5,4.5
		c-12.2,0-21.6-4.5-28.3-13.5c-5-6.7-7.5-14.6-7.5-23.7c0-7.3,1.6-14.1,4.9-20.2c3.3-6.1,7.8-10.9,13.6-14.3
		c5.8-3.4,12-5.1,18.9-5.1c5.3,0,10.5,1.3,15.7,3.9c1.5,0.8,2.6,1.2,3.2,1.2c1,0,1.8-0.3,2.5-1c0.9-1,1.6-2.3,2-4.1H2274.3z"/>
	<path class="st2" d="M2334.3,498h25.6v2h-1.4c-0.9,0-2.3,0.4-4.1,1.2c-1.8,0.8-3.4,2-4.9,3.6c-1.5,1.6-3.3,4.1-5.5,7.6l-17.7,27.9
		v18.4c0,4.5,0.5,7.3,1.5,8.4c1.4,1.5,3.5,2.3,6.5,2.3h2.4v2h-31.2v-2h2.6c3.1,0,5.3-0.9,6.6-2.8c0.8-1.2,1.2-3.8,1.2-7.9v-17.4
		l-20.1-30.8c-2.4-3.6-4-5.9-4.8-6.8c-0.8-0.9-2.6-2-5.3-3.2c-0.7-0.4-1.8-0.5-3.1-0.5v-2h31.4v2h-1.6c-1.7,0-3.3,0.4-4.7,1.2
		c-1.4,0.8-2.1,2-2.1,3.6c0,1.3,1.1,3.6,3.3,7l15.3,23.7l14.4-22.6c2.2-3.4,3.2-5.9,3.2-7.6c0-1-0.3-1.9-0.8-2.7
		c-0.5-0.8-1.3-1.4-2.2-1.9s-2.4-0.7-4.4-0.7V498z"/>
</g>
</svg>
